<?xml version="1.0" standalone="no"?>
<!DOCTYPE svg PUBLIC "-//W3C//DTD SVG 20010904//EN"
 "http://www.w3.org/TR/2001/REC-SVG-20010904/DTD/svg10.dtd">
<svg version="1.0" xmlns="https://www.w3.org/2000/svg"
 width="16.000000pt" height="16.000000pt" viewBox="0 0 16.000000 16.000000"
 preserveAspectRatio="xMidYMid meet">
<metadata>
Created by potrace 1.11, written by Peter Selinger 2001-2013
</metadata>
<g transform="translate(0.000000,16.000000) scale(0.002000,-0.002000)"
fill="#000000" stroke="none">
<path d="M2559 7953 c-45 -72 -79 -192 -86 -303 -10 -172 40 -342 144 -487 45
-64 50 -74 31 -69 -57 18 -226 18 -302 1 -358 -79 -650 -459 -697 -904 -32
-312 87 -623 308 -803 32 -26 68 -55 80 -65 l23 -18 -50 -124 c-216 -534 -179
-1010 101 -1314 369 -400 1046 -379 1317 42 82 125 124 263 138 448 l7 92 46
-40 c108 -96 222 -139 370 -139 109 0 185 17 280 61 234 109 431 367 473 620
6 41 13 76 14 78 2 2 24 -15 50 -38 180 -158 463 -157 626 3 l45 45 6 -87 c19
-277 166 -500 377 -574 99 -34 235 -31 352 9 l88 29 5 -35 c28 -183 65 -288
145 -408 193 -293 564 -474 970 -475 233 0 417 54 540 159 l40 35 0 2154 0
2154 -2705 0 -2705 0 -31 -47z"/>
<path d="M1916 3205 c-22 -8 -52 -26 -67 -42 -30 -31 -1370 -2771 -1388 -2838
-33 -122 23 -261 123 -309 31 -15 313 -16 3158 -16 l3124 0 46 29 c63 40 99
103 105 185 11 128 34 94 -621 936 -327 421 -608 780 -623 799 -60 74 -204
105 -292 63 -27 -13 -693 -545 -862 -689 -14 -12 -61 81 -448 899 -463 978
-456 965 -542 988 -80 22 -145 -3 -208 -79 -52 -62 -145 -133 -231 -176 -202
-101 -457 -120 -681 -49 -150 47 -233 97 -354 214 -102 98 -152 116 -239 85z
m319 -575 c174 -83 346 -120 557 -120 256 0 487 66 677 194 30 20 58 33 62 29
4 -4 193 -399 419 -878 227 -478 425 -886 440 -905 51 -66 127 -95 205 -78 40
9 108 60 507 385 376 305 463 372 474 361 7 -7 231 -294 499 -638 l487 -625
-1426 -3 c-784 -1 -2067 -1 -2850 0 l-1425 3 525 1075 c289 591 552 1130 584
1198 l59 122 63 -41 c35 -22 99 -58 143 -79z"/>
</g>
</svg>
