<svg xmlns="https://www.w3.org/2000/svg" viewBox="98 265 604 270" enable-background="new 98 265 604 270" xml:space="preserve"><rect x="98" y="265" width="604" height="270"/><path id="suck" opacity=".5" fill="#F00" enable-background="new" d="M700.476,437.831L700.476,437.831L700.476,437.831z M726.101,543.782c-3.146-1.649-7.193-3.897-12.138-6.595c-4.945-2.697-10.49-5.845-16.486-9.291	c-6.143-3.447-12.288-7.192-18.732-11.088c-6.292-3.896-12.587-7.942-18.73-11.989c-6.146-4.046-11.689-8.092-16.636-11.839	c6.445-6.146,13.039-12.29,19.633-18.882c5.544-5.546,11.688-11.541,18.432-17.982c6.743-6.445,13.038-12.589,19.182-18.285	c-0.148,0-0.749,0-1.798,0.149c-1.35,0.151-3.146,0.151-5.396,0.45c-2.246,0.15-4.943,0.451-7.79,0.6	c-2.848,0.299-5.845,0.451-8.844,0.599c-7.041,0.449-15.284,1.05-24.576,1.5c-5.995,7.342-11.987,14.236-18.282,20.682	c-5.395,5.546-11.239,11.089-17.534,16.335c-6.295,5.244-12.287,9.139-17.984,11.687c-1.046-5.544-1.646-10.79-2.095-15.733	c-0.299-4.946-0.45-9.891-0.45-14.688c0.151-4.945,0.299-9.74,0.6-14.687c0.299-4.795,0.749-10.04,1.198-15.733l-38.365-5.695	c-1.351,9.741-1.946,20.681-1.946,32.969c0.147,12.141,0.75,24.726,2.097,37.464c0.899,8.542,2.098,16.935,3.597,25.177	l-25.177,2.398c-2.396,3.896-5.844,6.892-10.487,9.291c-4.646,2.397-11.84,3.597-21.732,3.597c-8.092,0-14.983-1.799-20.531-5.395	c-5.543-3.598-10.038-8.244-13.485-14.087c-3.447-5.844-5.995-12.439-7.344-19.782c-1.497-7.343-2.098-14.687-2.098-22.178	c0-7.793,1.8-14.537,5.544-20.082c3.748-5.546,8.393-8.392,13.938-8.392c2.998,0,5.994,0.747,8.691,2.396	c2.698,1.499,5.096,3.599,7.343,6.296c2.247,2.548,4.195,5.544,5.995,8.842c1.799,3.298,3.296,6.595,4.644,9.889	c3.149,8.242,5.995,17.383,8.094,27.427l32.819-13.038c-2.25-12.14-5.394-22.479-9.742-31.021	c-4.345-8.394-9.29-15.286-14.985-20.531c-5.694-5.246-11.988-8.992-18.883-11.389c-6.892-2.399-14.085-3.596-21.278-3.596	c-6.895,0-14.087,1.196-21.281,3.596c-7.193,2.396-13.786,6.294-19.63,11.389c-5.994,5.094-10.79,11.689-14.686,19.783	c-1.501,3.146-2.697,6.442-3.598,10.039c-0.601-4.796-1.349-9.291-2.551-13.038c-2.096-6.894-4.342-12.589-6.743-16.784	c-2.846-4.945-6.142-8.842-9.589-11.688l-32.82,16.482c2.548,2.998,4.796,6.746,6.594,11.241c1.647,4.047,3.148,9.142,4.646,15.285	c1.35,6.145,2.099,13.786,2.099,22.628c0,6.745-0.6,12.439-1.949,16.937c-1.198,4.494-2.848,8.092-4.796,10.639	c-1.948,2.549-4.045,4.494-6.143,5.545c-2.099,1.049-4.046,1.498-5.696,1.498c-3.896,0-7.043-1.199-9.591-3.447	c-2.547-2.246-4.646-5.244-6.145-8.991c-1.499-3.745-2.697-7.94-3.296-12.737c-0.75-4.646-1.049-9.442-1.049-14.387	c0-5.394,0.299-10.64,0.749-15.587c0.45-4.943,1.049-9.439,1.798-13.486c0.6-4.496,1.499-8.841,2.548-12.738l-33.568,20.683	c-1.349,2.998-2.397,5.995-3.297,9.141c-0.898,2.847-1.648,5.993-2.248,9.59c-0.749,3.598-1.049,7.492-1.049,11.54	c0,6.744,0.45,13.638,1.5,20.531c-5.096-4.945-11.54-9.441-19.182-13.787c-7.944-4.347-16.335-8.394-25.477-11.991	c-9.142-3.597-17.684-7.042-25.476-10.188c-7.793-3.146-14.387-5.995-19.632-8.692c-5.245-2.546-7.943-5.094-7.943-7.643	c0-1.948,1.648-3.445,4.946-4.646c3.297-1.198,7.343-1.647,12.288-1.647c3.447,0,7.043,0.301,11.089,0.899	c4.047,0.6,7.943,1.646,11.84,2.996c3.895,1.349,7.643,3.147,11.239,5.246c3.597,2.097,6.744,4.646,9.591,7.792l34.019-11.989	c-3.896-5.243-8.842-9.891-14.836-13.937c-5.996-4.047-12.739-7.645-19.932-10.492c-7.343-2.846-14.985-5.094-23.079-6.594	c-8.092-1.497-16.036-2.246-23.827-2.246c-11.389,0-20.681,1.048-28.023,3.147c-7.343,2.097-13.188,4.795-17.684,8.092	c-4.345,3.298-7.493,7.042-9.291,11.089c-1.799,4.047-2.698,8.094-2.698,11.84c0,6.145,2.698,11.688,7.942,16.784	c5.394,5.094,11.989,9.741,19.932,14.236c7.941,4.497,16.632,8.543,26.075,12.139c9.44,3.598,18.131,7.043,26.075,10.04	c7.942,2.998,14.686,5.845,19.932,8.393c5.394,2.547,7.941,4.795,7.941,6.895c0,1.946-1.499,3.295-4.645,4.345	c-3.147,0.899-7.194,1.499-12.139,1.499c-5.096,0-10.79-0.451-17.084-1.349c-6.294-0.9-12.439-2.399-18.733-4.495	c-6.144-2.1-12.138-4.798-17.982-8.095c-5.694-3.295-10.791-7.341-14.986-11.986l-27.724,21.129	c4.196,5.244,9.891,9.89,17.084,13.787c7.193,4.047,15.135,7.342,23.827,10.19c8.692,2.848,17.684,4.946,27.125,6.295	c9.44,1.35,18.283,2.097,26.826,2.097c10.79,0,20.229-0.899,28.023-2.846c7.792-1.95,14.086-4.348,18.882-7.345	c4.796-2.995,8.393-6.293,10.641-10.189c1.349-2.1,2.249-4.348,2.697-6.444c3.146,5.245,7.492,9.441,12.887,12.888	c5.995,3.746,13.637,5.545,23.079,5.545c9.891,0,18.88-1.948,27.124-5.693c8.244-3.898,15.287-9.143,21.28-16.037	c5.996-6.892,10.64-14.985,14.088-24.425c1.349-3.746,2.397-7.495,3.147-11.541c0.898,5.994,2.249,11.69,4.195,16.936	c3.448,9.289,8.392,17.085,14.986,23.827c6.594,6.594,14.835,11.689,24.726,15.434c9.891,3.599,21.281,5.548,34.319,5.548	c8.69,0,16.634-1.051,23.827-3.298c7.343-2.25,14.087-5.095,20.529-8.692c6.294-3.597,12.139-7.941,17.534-13.038	c0.599-0.45,1.05-1.051,1.649-1.499c2.548,12.289,5.844,23.678,9.74,34.019c0.299-0.299,2.698-0.898,6.894-1.497	c4.195-0.601,8.844-1.35,13.937-2.25c5.994-0.899,12.738-1.796,20.381-2.846c-1.499-4.497-3.146-9.443-4.797-14.687	c-1.346-4.495-2.846-9.742-4.345-15.735c-1.497-5.845-2.998-12.139-4.348-18.881c3.749,2.396,7.794,4.945,12.291,7.641	c4.494,2.699,9.142,5.396,13.937,8.242c4.795,2.848,9.739,5.544,14.536,8.242c4.945,2.697,9.59,5.396,14.236,7.942	c10.64,5.994,21.58,11.989,32.82,17.984l40.612-13.787C731.047,546.33,729.098,545.431,726.101,543.782z"/><path id="fumes" opacity=".5" fill="#FFF" enable-background="new" d="M444.515,304.908	c-2.994-13.787-6.292-26.825-9.889-39.262c-3.597-12.439-7.194-23.379-10.79-32.82c0.15,0.149-1.349,0.749-4.646,1.648	c-3.297,0.899-7.044,2.098-11.089,3.297c-4.796,1.35-10.19,2.848-16.334,4.496c-0.9,5.694-2.099,12.888-3.747,21.429	c-1.35,7.344-3.298,16.635-5.845,27.875c-2.548,11.238-5.695,24.576-9.591,40.312c0-0.3-0.75-1.798-2.098-4.196	c-1.499-2.849-3.747-6.595-6.444-10.941c-2.847-4.495-5.995-9.44-9.741-15.135s-7.792-11.239-12.137-16.785	c-4.348-5.545-8.843-10.79-13.489-15.735c-4.646-4.945-9.291-8.991-13.786-12.138l-24.578,10.49c-0.149-0.15-0.149-0.449-0.3-0.6	c-2.848-4.795-6.145-8.841-9.592-11.688l-32.818,16.483c2.547,2.998,4.795,6.745,6.593,11.24c1.649,4.047,3.148,9.142,4.646,15.285	c1.348,6.145,2.097,13.788,2.097,22.628c0,6.744-0.598,12.44-1.948,16.935c-1.198,4.496-2.847,8.092-4.795,10.64	c-1.948,2.547-4.045,4.496-6.143,5.545c-2.099,1.048-4.046,1.498-5.695,1.498c-3.896,0-7.043-1.198-9.591-3.446	s-4.646-5.246-6.144-8.992c-1.499-3.746-2.698-7.941-3.297-12.738c-0.749-4.646-1.048-9.442-1.048-14.386	c0-5.395,0.3-10.64,0.75-15.585c0.45-4.945,1.048-9.441,1.798-13.487c0.599-4.495,1.499-8.841,2.548-12.738l-31.621,19.481	l-12.888-25.176l-92.014-3.147l-7.043,10.19c3.446,8.841,6.294,18.583,8.842,29.223c2.398,10.64,4.496,21.579,6.144,32.669	c1.648,11.089,2.848,22.179,3.597,33.119s1.198,20.981,1.198,30.423c0.299,0,2.399-0.451,6.294-1.2	c3.747-0.75,7.942-1.647,12.588-2.548c5.396-1.05,11.388-2.397,17.982-3.897c0-8.391-0.3-16.932-0.749-25.775	c-0.451-8.841-1.2-17.233-2.098-25.475l50.203-4.496c0.3,2.997,0.598,5.844,1.049,8.842c1.049,7.343,3.297,13.937,6.594,19.78	c3.297,5.995,7.943,10.791,13.787,14.537c5.994,3.747,13.638,5.546,23.078,5.546c9.891,0,18.883-1.949,27.125-5.695	c8.243-3.898,15.285-9.143,21.28-16.037c5.995-6.893,10.64-14.985,14.087-24.426c0.899-2.547,1.648-5.095,2.398-7.643	c0.898,5.246,1.798,10.49,2.547,16.035c2.098,13.937,3.147,27.574,3.147,40.762c0-0.15,1.947-0.749,5.695-1.5	c3.746-0.898,7.943-1.797,12.588-2.846c5.394-1.199,11.539-2.548,18.583-4.196c0-5.546-0.3-11.389-0.901-17.234	c-0.599-5.845-1.198-11.389-1.948-16.184c-0.9-5.695-1.799-11.09-2.847-16.186c3.147,3.148,6.443,7.195,9.891,12.288	c3.446,5.096,6.443,10.341,9.291,16.036s5.096,11.24,7.043,16.785c1.799,5.544,2.848,10.041,2.848,13.786l29.672-6.293	c1.2-10.641,2.399-19.632,3.596-26.975c1.199-7.343,2.399-13.487,3.447-18.431c1.05-4.946,2.249-8.994,3.447-12.14	c1.2-3.146,2.397-5.694,3.597-7.793c1.199,4.047,2.548,8.692,3.895,14.087c1.501,5.395,2.85,11.39,4.199,17.982	c1.348,6.595,2.396,13.788,3.297,21.43c0.897,7.645,1.198,15.735,1.198,23.979l17.831-4.646c5.247-1.349,11.091-2.998,17.536-4.646	c0-12.588-1.052-25.775-2.998-39.862C449.911,332.632,447.513,318.695,444.515,304.908z M190.355,303.559	c-0.898,2.848-1.649,5.995-2.248,9.741c-0.15,1.199-0.45,2.398-0.6,3.747l-53.65,0.3c-0.897-5.095-1.647-9.291-2.546-12.738	c-0.899-3.447-1.648-5.995-2.547-7.643l62.94,2.398C191.105,300.561,190.654,302.06,190.355,303.559z M703.173,345.819	c-5.247-5.095-11.839-9.891-19.635-14.237c-7.938-4.346-16.332-8.392-25.474-11.989c-9.141-3.596-17.683-7.043-25.476-10.19	c-7.943-3.146-14.387-5.994-19.633-8.692c-5.244-2.548-7.942-5.095-7.942-7.642c0-1.948,1.648-3.447,4.945-4.646	c3.298-1.198,7.346-1.648,12.289-1.648c3.447,0,7.044,0.301,11.09,0.9c4.046,0.598,7.944,1.648,11.84,2.997	s7.642,3.146,11.239,5.246c3.597,2.097,6.744,4.644,9.59,7.792l34.018-11.988c-3.896-5.246-8.841-9.891-14.836-13.938	c-5.992-4.045-12.736-7.643-19.932-10.49c-7.342-2.847-14.985-5.095-23.076-6.593c-8.094-1.499-16.036-2.249-23.827-2.249	c-11.392,0-20.682,1.049-28.024,3.147c-7.343,2.097-13.189,4.795-17.685,8.092c-4.345,3.296-7.491,7.042-9.29,11.089	c-1.799,4.046-2.698,8.093-2.698,11.839c0,6.143,2.698,11.688,7.942,16.783c5.396,5.095,11.989,9.741,19.933,14.237	c7.942,4.496,16.634,8.542,26.075,12.139c9.44,3.597,18.132,7.043,26.075,10.041c7.941,2.998,14.686,5.844,19.931,8.393	c5.395,2.547,7.942,4.794,7.942,6.893c0,1.949-1.498,3.295-4.646,4.346c-3.146,0.898-7.192,1.498-12.137,1.498	c-5.097,0-10.792-0.449-17.084-1.349c-6.293-0.899-12.439-2.397-18.732-4.496c-6.146-2.099-12.138-4.796-17.983-8.092	c-5.695-3.297-10.789-7.343-14.985-11.989l-5.995,4.496l-83.92,12.138c-0.3-5.844-0.899-12.738-1.499-20.68l63.539-5.694	l2.999-25.027l-68.036,3.896l-3.748-18.881c6.595-0.3,14.088-0.6,22.329-0.6c8.241-0.149,16.185,0,23.678,0.45	c8.691,0.3,17.383,0.75,26.225,1.349l-7.642-26.975l-83.921-3.147l-22.628,17.983c1.797,5.244,3.745,12.438,5.693,21.729	c1.951,9.291,3.745,19.182,5.395,29.971c1.648,10.791,2.846,21.73,3.896,32.82c1.05,11.089,1.5,20.98,1.5,29.671l13.185-2.397	L567.1,375.94l1.051-2.698c1.348,0.9,2.846,1.798,4.345,2.698c7.194,4.046,15.137,7.343,23.829,10.191	c8.689,2.846,17.683,4.945,27.123,6.293s18.282,2.097,26.824,2.097c10.791,0,20.232-0.899,28.024-2.846	c7.793-1.949,14.087-4.348,18.882-7.344c4.795-2.998,8.391-6.295,10.64-10.191c2.248-3.896,3.447-7.793,3.447-11.688	C710.965,356.608,708.417,350.914,703.173,345.819z"/><path id="you" opacity=".5" fill="#F00" enable-background="new" d="M227.669,331.882	c2.548-8.094,5.096-15.736,7.344-22.479l-50.502,8.243c-0.9,4.045-2.099,8.542-3.597,13.937c-1.349,4.346-2.848,9.891-4.796,16.185	c-1.947,6.445-4.345,13.637-7.042,21.879c-2.847,7.943-6.594,13.789-11.389,17.683c-4.795,3.897-9.441,5.845-13.937,5.845	c-3.147,0-5.845-0.899-7.792-2.698c-1.949-1.798-3.447-4.045-4.496-6.892c-1.049-2.847-1.798-6.145-2.097-9.742	c-0.3-3.596-0.3-7.342-0.151-11.089c0.45-8.842,2.098-19.032,4.795-30.421L89.5,327.385c-2.546,13.638-4.046,26.826-4.495,39.563	c-0.449,12.738,0.449,23.978,2.697,33.717c2.249,9.892,6.145,17.685,11.54,23.53c5.545,5.843,12.888,8.841,22.03,8.841	c4.945,0,9.591-0.601,13.936-1.948c4.347-1.35,8.243-2.849,11.39-4.646c3.897-1.947,7.344-4.194,10.64-6.594l-40.312,108.197	l54.098-12.287c4.497-14.836,8.992-29.671,13.488-44.658c3.895-12.738,8.093-26.675,12.588-41.511	c4.496-14.836,8.692-28.624,12.587-41.211c3.447-11.239,6.594-21.73,9.591-31.321C222.576,347.317,225.273,339.076,227.669,331.882z M502.512,355.409c-2.698-8.841-5.546-15.884-8.543-21.13c-3.596-6.144-7.793-11.089-12.287-14.836l-41.51,20.832	c3.146,3.746,5.992,8.542,8.391,14.236c2.099,5.095,4.046,11.538,5.843,19.331c1.649,7.794,2.548,17.384,2.548,28.624	c0,8.542-0.748,15.736-2.397,21.579c-1.647,5.694-3.595,10.19-6.144,13.637c-2.396,3.297-5.095,5.694-7.793,6.893	c-2.696,1.349-5.095,1.948-7.193,1.948c-4.944,0-8.991-1.499-12.289-4.343c-3.297-2.851-5.843-6.595-7.791-11.392	c-1.949-4.795-3.297-10.041-4.198-16.034c-0.897-5.994-1.347-11.988-1.347-18.132c0-6.894,0.3-13.338,0.898-19.632	c0.6-6.293,1.35-11.988,2.248-17.083c0.9-5.695,1.946-11.089,3.146-16.185l-42.559,26.075c-1.648,3.747-3.148,7.644-4.196,11.539	c-0.601,2.249-1.35,4.646-1.949,7.194c-0.899-2.849-1.948-5.694-3.297-8.392c-3.896-7.793-9.141-14.537-15.735-20.23	c-6.593-5.695-14.388-9.891-23.378-12.889c-8.842-2.997-18.283-4.496-28.173-4.496c-11.839,0-22.779,1.499-32.969,4.496	c-10.19,2.998-19.032,7.344-26.675,13.188c-7.643,5.843-13.637,13.187-17.983,22.179c-4.345,8.992-6.593,19.333-6.593,31.32	c0,5.995,0.899,12.588,2.847,20.081c1.949,7.343,5.695,14.386,11.09,20.831c5.544,6.443,13.038,11.988,22.629,16.334	c9.591,4.346,22.328,6.593,38.063,6.593c13.339,0,25.176-1.8,35.368-5.694c10.34-3.746,18.882-8.841,25.925-15.285	c7.043-6.443,12.289-13.938,15.885-22.629c0.749-1.648,1.35-3.298,1.798-5.096c0.3,2.249,0.599,4.347,0.899,6.593	c1.349,9.292,4.197,17.685,8.391,25.179c4.198,7.492,10.042,13.637,17.535,18.431c7.494,4.795,17.233,7.046,29.373,7.046	c12.438,0,23.828-2.399,34.315-7.347c10.34-4.793,19.484-11.686,26.977-20.379c7.643-8.691,13.637-19.033,17.832-31.021	c4.346-11.987,6.445-25.027,6.445-39.412C506.557,375.191,505.209,364.252,502.512,355.409z M311.891,435.433	c-4.046,7.346-10.94,11.09-20.831,11.09c-10.94,0-18.432-3.146-22.328-9.44c-4.047-6.294-5.995-14.685-5.995-25.325	c0-11.988,2.697-21.131,7.942-27.874c5.245-6.594,12.138-9.891,20.38-9.891c6.895,0,13.039,2.848,18.583,8.542	s8.242,14.087,8.242,25.178C317.885,418.8,315.788,427.939,311.891,435.433z"/></svg>