<svg xmlns="http://www.w3.org/2000/svg" id="icn--categories" viewBox="0 0 1000 1000">
  <title>categories</title>
  <g shape-rendering="crispEdges" fill-rule="evenodd" clip-rule="evenodd">
    <path d="M467.6 997c25.5 0 46.2-20.8 46.2-47.4v-899c0-26.2-21-47.5-46.2-47.5H326.5c-25.5 0-46.2 20.8-46.2 47.5v898.9c0 26.2 21 47.4 46.2 47.4l141.1.1zM326.8 50.6c0-.4 140.2-.1 140.2-.1-.5 0-.3 899-.3 899 0 .4-140.2.1-140.2.1.5 0 .5-899 .5-899h-.2zm502.7 948l136.2-37c24.8-6.7 39.4-32.2 32.6-58L768.7 35.3C762 9.9 736.2-5.1 711.8 1.6L575.6 38.5c-24.8 6.8-39.4 32.3-32.6 58l229.6 868.3c6.8 25.3 32.6 40.2 56.9 33.8zm-106-951.2c-.3.1 229.3 868.4 229.3 868.4.1.4-135.4 36.9-135.4 36.9.4-.1-229.3-868.4-229.3-868.4-.1-.3 135.5-36.9 135.4-36.9zM187.3 997c25.5 0 46.2-20.8 46.2-47.5v-899c0-26.2-21-47.5-46.2-47.5H46.2C20.8 3.1 0 23.9 0 50.5v898.9c0 26.2 21 47.4 46.2 47.4l141.1.2zM46.6 50.6c0-.4 140.3-.1 140.3-.1-.5 0-.3 899-.3 899 0 .4-140.2.1-140.2.1.4 0 .4-899 .4-899h-.2z"/>
  </g>
</svg>
