<svg version="1.1" id="icn--curator" xmlns="http://www.w3.org/2000/svg" x="0" y="0" viewBox="79 -202.7 1000 1000" xml:space="preserve">
  <path class="st0" d="M732.4-70c-49.2-20.8-101.5-31.3-155.4-31.3-53.8 0-106 10.5-155 31.3-47.4 20-90 48.8-126.6 85.4-36.6 36.6-65.3 79.3-85.3 126.7-20.8 49.1-31.3 101.3-31.3 155.1s10.5 106 31.3 155.1c20.1 47.5 48.8 90.1 85.3 126.7 36.6 36.6 79.2 65.4 126.6 85.5 49.1 20.8 101.3 31.3 155 31.3 53.9 0 106.2-10.5 155.4-31.3 47.5-20.1 90.2-48.8 126.9-85.5 36.6-36.6 65.4-79.3 85.5-126.7 20.8-49.1 31.3-101.3 31.3-155.1s-10.5-106-31.3-155.1c-20.1-47.4-48.8-90-85.5-126.7C822.6-21.2 780-50 732.4-70zm196.4 367.3c0 47.4-9.3 93.5-27.6 136.8-17.7 41.8-43 79.4-75.3 111.7s-69.8 57.6-111.7 75.3c-43.3 18.3-89.3 27.6-136.8 27.6-47.4 0-93.5-9.3-136.8-27.6-41.8-17.7-79.4-43-111.7-75.3s-57.6-69.8-75.3-111.7c-18.3-43.3-27.6-89.3-27.6-136.8 0-47.4 9.3-93.5 27.6-136.8 17.7-41.8 43-79.4 75.3-111.7s69.8-57.6 111.7-75.3c43.3-18.3 89.3-27.6 136.8-27.6 47.4 0 93.5 9.3 136.8 27.6 41.8 17.7 79.4 43 111.7 75.3s57.6 69.8 75.3 111.7c18.3 43.3 27.6 89.3 27.6 136.8z"/>
  <path class="st0" d="M776.2 421.3L594.8 313.7l-3.4-2V95.9h-48.5v239l209.4 125.6 23.9-39.2z"/>
</svg>
