<svg xmlns="http://www.w3.org/2000/svg" viewBox="79 -202.7 1000 1000">
  <path d="M754 446.9c-1.5-1.5-3.4-2.8-5.8-4-2.8-1.4-6-2.2-9.3-2.2-6.3 0-12.6 2.6-18.7 7.6-18.5 14.4-38.5 25.2-59.4 32.1-21.1 7-46.7 10.6-76.1 10.6-26.4 0-50.9-4.4-72.9-13.1-21.8-8.6-41-21.3-56.8-37.7-15.9-16.4-28.6-36.8-37.6-60.7-9.1-24-13.7-51.9-13.7-83 0-30 4.6-57.4 13.7-81.4 9-23.8 21.9-44.3 38.4-60.9 16.4-16.6 36.5-29.6 59.6-38.6 23.3-9.1 49.6-13.6 78.1-13.6 23.5 0 43.2 2.2 58.7 6.7 15.6 4.5 28.5 9.4 38.4 14.6 9.9 5.3 17.7 10.2 23.2 14.5 7.9 6.2 14.4 9.1 20.5 9.1 7.9 0 14.6-3.6 19-10.2l12.8-17.6 5.4-7.4-6.9-6c-11.5-10-23.3-18.9-35.3-26.6-12.3-7.6-25.5-14.3-39.3-19.7-13.9-5.5-29.2-9.6-45.5-12.5-16.2-2.8-34.2-4.2-53.4-4.2-36.8 0-71.2 6.2-102.2 18.5-31.1 12.3-58.2 29.9-80.7 52.2-22.5 22.3-40.2 49.4-52.6 80.4-12.4 30.9-18.7 65.5-18.7 102.7 0 37.8 6 72.7 17.8 103.6 11.9 31.1 28.8 58 50.4 80.2 21.6 22.2 47.8 39.6 78 51.8 30.1 12.1 63.4 18.3 99.2 18.3 43.1 0 80.1-6.7 110-19.8 29.9-13.1 56.2-30.9 78.3-53l7-7-7-7-16.6-16.7zm210.2-256.1c-9.6-34-23.1-66.2-40.2-95.6-17.1-29.4-38.1-56.7-62.4-81-24.3-24.3-51.6-45.3-81.2-62.7-29.6-17.3-61.7-30.9-95.5-40.5-33.9-9.6-69.7-14.4-106.5-14.4S505.8-98.5 471.9-89c-33.8 9.6-65.9 23.2-95.3 40.5C347.2-31.1 320-10 295.7 14.2c-24.3 24.3-45.3 51.6-62.4 81s-30.6 61.6-40.1 95.6c-9.6 34-14.4 69.8-14.4 106.2 0 36.8 4.9 72.7 14.4 106.6 9.5 33.8 23.1 65.9 40.1 95.3 17.1 29.5 38.1 56.7 62.4 81 24.3 24.3 51.5 45.4 80.9 62.6 29.4 17.3 61.5 30.9 95.6 40.5 34.1 9.6 69.8 14.4 106.2 14.4 36.8 0 72.6-4.9 106.5-14.4 33.8-9.6 66-23.2 95.5-40.5 29.6-17.3 56.9-38.4 81.2-62.7 24.3-24.3 45.3-51.5 62.4-81 17.1-29.4 30.6-61.5 40.2-95.3 9.6-33.9 14.4-69.8 14.4-106.6 0-36.2-4.9-72-14.4-106.1zM901 434.2c-18.2 42.5-43.3 80.1-74.8 111.7-31.4 31.6-68.9 56.8-111.3 75-42.4 18.1-88.3 27.3-136.5 27.3s-93.9-9.2-135.9-27.3c-42.1-18.2-79.4-43.4-110.8-75-31.4-31.6-56.5-69.2-74.5-111.6-18-42.4-27.1-88.5-27.1-137.1 0-48.6 9.1-94.7 27.1-137.1 18-42.5 43.1-80.1 74.5-111.9C363.1 16.4 400.4-9 442.5-27.4c42-18.3 87.7-27.6 135.9-27.6s94.1 9.3 136.5 27.6C757.3-9 794.8 16.4 826.2 48.1c31.4 31.8 56.6 69.4 74.8 111.9 18.1 42.4 27.3 88.5 27.3 137.1 0 48.6-9.2 94.7-27.3 137.1z"/>
</svg>
