<svg xmlns="http://www.w3.org/2000/svg" viewBox="79 -202.7 1000 1000">
  <path d="M579 246c-123 0-223.1 108-223.1 240.7S456 727.5 579 727.5s223.1-108 223.1-240.8S702 246 579 246zm0 434.5c-99.5 0-180.5-86.9-180.5-193.7s81-193.7 180.5-193.7S759.5 380 759.5 486.8s-81 193.7-180.5 193.7zM614.7-146.8c-1.3 1.6-2.6 3.2-4 4.7 1.4-1.5 2.8-3.1 4-4.7zm-15.4 13.4c-2 1.1-4.1 2.1-6.3 2.9 2.1-.8 4.3-1.8 6.3-2.9zm8.7-6.1c-1 .9-2.1 1.8-3.2 2.6 1-.8 2.1-1.7 3.2-2.6zm-29.8 11.6zm9.7-1.1c-1.6.4-3.2.6-4.8.8 1.6-.2 3.2-.5 4.8-.8zm141.3-62.1c1.1 1.2 2.2 2.5 3.2 3.9-1-1.4-2.1-2.7-3.2-3.9zm8.8 14.5c.5 1.4 1 2.9 1.3 4.4-.3-1.5-.7-2.9-1.3-4.4zm0 0c-.8-2.2-1.7-4.3-2.8-6.3-.8-1.5-1.8-3-2.8-4.4 1 1.4 1.9 2.8 2.8 4.4 1.1 2.1 2.1 4.2 2.8 6.3zM560.7 154.3c-1.5-.9-3-1.9-4.4-3 1.5 1.1 2.9 2.1 4.4 3zm-48.8-350.4c1.1-.8 2.2-1.5 3.4-2.1-1.2.6-2.3 1.4-3.4 2.1zm11.8-5.5c1.3-.3 2.6-.6 3.9-.8-1.3.2-2.6.4-3.9.8zm-107.5 33.8c-.5 3.4-.6 6.9-.4 10.3-.2-3.4-.1-6.9.4-10.3zm75.5-10.4c-.3-.3-.5-.7-.7-1.1-.9-2-1.9-4-3-5.8 1.1 1.8 2.1 3.7 3 5.8.2.4.4.8.7 1.1zm-6.1-10.3c.9 1.1 1.7 2.2 2.4 3.5-.8-1.3-1.6-2.5-2.4-3.5zm217.6-13.2H699c-13.9 0-26.7 8.9-32.7 22.6-.4.8-1.8 3.3-4.7 3.3-2.1 0-3.7-1.1-4.7-3.2-6-14.1-18.5-22.8-32.7-22.8h-8.6c-13.9 0-26.7 8.9-32.7 22.6-.4.8-1.8 3.3-4.7 3.3-2.1 0-3.7-1.1-4.7-3.2-6-14.1-18.5-22.8-32.7-22.8h-8.6c-13.8 0-26.6 8.9-32.7 22.6-.4.8-1.8 3.3-4.7 3.3-2.1 0-3.7-1.1-4.7-3.2-6-14.1-18.5-22.8-32.7-22.8h-4.2c-12.7 0-24.3 7.2-31 19.3l-.2.4c-6.4 12-7 26.7-1.5 39.3l125 278.5c6.2 13.7 19 22.5 32.7 22.5 14 0 26.8-8.9 32.8-22.8l124.8-278c5.8-12.5 5.2-27.7-1.5-39.7-6.6-11.8-18.6-19.2-31.1-19.2zm-18.3 67.9L579 102.1l-.9 2-.9-2-105.9-235.8-1.3-2.8 2.7 1.5c6.8 3.9 14.4 6 22.2 6.1 16.5 0 31.5-9.5 40.2-25.5l.3-.5H537.7l.3.5c8.5 15.9 23.6 25.5 40.2 25.5 16.5 0 31.5-9.5 40.2-25.5l.3-.5H621l.3.5c8.5 15.9 23.6 25.5 40.2 25.5 7.5 0 15.1-2.1 22-6.2l2.7-1.6-1.3 2.9zm-10.4-58.9c1.5-1.4 3-2.7 4.7-3.8-1.6 1.2-3.2 2.4-4.7 3.8zm6.4-4.8c1.1-.7 2.3-1.3 3.5-1.9-1.2.5-2.4 1.2-3.5 1.9zm-14.3 15.4c.9-1.7 1.9-3.3 2.9-4.8-1 1.5-2 3.1-2.9 4.8zm-171.7 54.2c-2 0-4-.2-6-.5 2 .3 4 .5 6 .5zm74.1-60.6c.9 1.1 1.7 2.2 2.4 3.5-.8-1.3-1.6-2.5-2.4-3.5zm6.1 10.3c-.3-.3-.5-.7-.7-1.1-.9-2-1.9-4-3-5.8 1.1 1.8 2.1 3.7 3 5.8.2.4.4.8.7 1.1zm18.6-16.7c1.4-1.1 2.9-2.1 4.4-3-1.6.9-3 1.9-4.4 3zm-7.5 8c-1.6 2.3-3 4.8-4.2 7.4 0 .1-.1.1-.1.2 0-.1.1-.1.1-.2 1.2-2.7 2.6-5.2 4.2-7.4zm29.4-15.8c-1.8 0-3.5.1-5.3.4 1.8-.3 3.5-.4 5.3-.4zm42.9 24.5c-.3-.3-.5-.7-.7-1.1-.3-.6-.5-1.2-.8-1.8.3.6.6 1.2.8 1.8.2.4.4.8.7 1.1zm-58.1-20.9c1.6-.8 3.2-1.4 4.9-2-1.7.5-3.4 1.2-4.9 2zm37.5-.8c1.8.8 3.5 1.7 5.1 2.7-1.6-1-3.4-1.9-5.1-2.7zm-13.7-2.8c.9 0 1.8 0 2.7.1-.9-.1-1.8-.1-2.7-.1zm2.7.1c1.8.1 3.5.4 5.2.8-1.7-.4-3.4-.7-5.2-.8z"/>
  <path d="M645.6 414.5c-17.6-31.7-34.6-58-39.4-65.4L579 308.2l-27.2 40.9c-2 2.9-20.8 31.5-39.4 65.4-28.7 51.9-42.6 89.7-42.6 115.7 0 65.7 49 119.1 109.3 119.1 27.4 0 53.7-11.2 73.9-31.4 11-11.1 19.7-24.2 25.8-39.1 6.3-15.4 9.5-31.7 9.4-48.6-.1-26.1-14-63.9-42.6-115.7zm-66.5 187.9c-36.6 0-66.5-32.4-66.5-72.3 0-23 25.5-71.6 36.4-91.4 11.6-21 23.2-39.8 30-50.6 8.1 12.9 19.2 30.8 30.1 50.6 23.1 41.9 36.4 75.2 36.4 91.4 0 39.9-29.8 72.3-66.4 72.3z"/>
  <path d="M761 269.1c-3-1.4-5.9-2.9-8.9-4.2-1.8-.9-3.7-1.7-5.5-2.5 1.8.8 3.7 1.7 5.5 2.5 2.9 1.4 5.9 2.8 8.9 4.2zm-425.8 35.4c-3.4 2.2-6.8 4.4-10.3 6.7 3.5-2.2 6.9-4.5 10.3-6.7zm-10.2 6.7c-2.7 1.8-5.4 3.7-8.2 5.5 2.7-1.8 5.5-3.6 8.2-5.5zm-8.2 5.6c-2.4 1.7-4.8 3.3-7.2 5 2.4-1.7 4.8-3.4 7.2-5zm524.2-.5c5.9 4.1 11.9 8.3 17.8 12.7-6-4.4-11.9-8.6-17.8-12.7zm52 39.3c-2.8-2.3-5.6-4.5-8.4-6.8 2.8 2.3 5.6 4.5 8.4 6.8zm0 0c.4.3.8.7 1.2 1-.4-.4-.8-.7-1.2-1zm-8.4-6.8c-3.4-2.8-6.9-5.5-10.3-8.1 3.4 2.6 6.9 5.4 10.3 8.1zm-21.9 291c-5.4 4-10.8 7.9-16.3 11.8 5.4-3.9 10.8-7.8 16.3-11.8zM301.2 270.1c5.3-3.6 10.6-7.1 16-10.4-5.4 3.3-10.7 6.8-16 10.4zm679.2 329.7c-2.5 2.5-5.1 5-7.7 7.5 2.6-2.5 5.2-5 7.7-7.5zm-7.7 7.5c-6.6 6.3-13.4 12.7-20.6 19.2 7.2-6.5 14.1-12.9 20.6-19.2zm59.7-62.6c-2.5 2.9-5.1 5.9-7.9 9 2.8-3.1 5.4-6.1 7.9-9zm41.5-65.7l5.1 6.8-20.6 27.4c-3.3 4.2-11.5 14.8-24.2 29.4 12.7-14.6 20.9-25.2 24.2-29.4l20.6-27.4-5.1-6.8zm-49.4 74.7c-2.8 3.1-5.8 6.4-8.9 9.8 3.1-3.4 6-6.6 8.9-9.8zM816.7 671.3c-6.7 4.2-13.4 8.2-20.1 12.1 6.7-3.9 13.4-7.9 20.1-12.1zm240.9-158.7l20.1-26.8-19.7-26.3-.3-.3v-.1c-13.3-17.3-62.5-78.5-138.2-140.8-49.9-41.3-100.7-74.1-151-97.5-64.2-29.9-127.9-45.1-189.4-45.1-62 0-125.7 15.2-189.5 45.1-50.6 23.9-101.4 56.7-150.9 97.5-81.8 67.5-132.7 133.7-138.2 141L80.2 486l19.8 26.4.3.4c13.3 17.3 62.5 78.5 138.4 140.9 49.9 41.3 100.7 74.1 151 97.5 64.2 29.9 127.9 45.1 189.4 45.1 61.7 0 125.4-15.3 189.4-45.4 50.6-23.9 101.4-56.7 150.9-97.5 75.4-62.1 124.8-123.5 138.2-140.8zM752.4 707.8c-58.7 27.6-117 41.6-173.2 41.6-56 0-114.3-13.9-173.3-41.4-47.4-22.1-95.2-53-142.3-91.8-69.4-57-115.7-113.6-128.3-129.6l-.5-.6.5-.6c12.4-15.8 58.3-72 128.3-129.6 46.6-38.4 94.5-69.3 142.3-91.8 58.9-27.5 117.3-41.4 173.3-41.4 56 0 114.3 13.9 173.3 41.4 47.1 22 95 52.9 142.3 91.8 69.9 57.7 115.7 113.7 128.1 129.5l.5.6-.5.6c-16.2 20.5-61 74.1-128.1 129.5-47 38.5-94.9 69.4-142.4 91.8zm133.9-86.3c2.6-2.1 5.2-4.2 7.8-6.4-2.6 2.2-5.2 4.3-7.8 6.4z"/>
</svg>
