<svg xmlns="http://www.w3.org/2000/svg" id="icn--posts" viewBox="0 0 800 800">
  <title>posts</title>
  <g shape-rendering="crispEdges" fill-rule="evenodd" clip-rule="evenodd">
    <rect x="36.4" y="79.979" width="727.3" height="40.043"/>
    <rect x="72.7" width="654.5" height="40.044"/>
    <path d="M706.999,732.952L706.999,732.952c-0.11,0-0.221-0.001-0.332-0.002H92.047c-8.601,0-16.314-4.099-20.633-10.965 c-4.522-7.189-4.8-16.135-0.762-24.543c0.334-0.695,0.713-1.369,1.133-2.016l134.731-207.275c2.846-4.379,7.454-7.306,12.627-8.021 c5.175-0.717,10.403,0.852,14.33,4.294c15.807,13.855,43.076,22.462,71.165,22.461c27.259,0,50.372-7.912,60.319-20.647 c3.565-4.566,9.111-7.125,14.9-6.907c5.788,0.23,11.113,3.231,14.306,8.065l80.222,121.451l84.725-51.778 c4.622-3.271,9.977-4.993,15.562-4.993c8.826,0,16.886,4.276,22.056,11.571l127.318,129.497c1.042,1.059,1.948,2.243,2.699,3.525 c4.768,8.145,5.078,17.431,0.83,24.84C723.465,728.674,715.773,732.952,706.999,732.952z M113.731,696.95h563.569L572.941,590.806 l-90.155,55.098c-3.709,2.513-8.125,3.884-12.575,3.884c-7.988,0-15.264-4.242-19.304-11.164L375.552,524.54 c-17.989,11.829-42.658,18.346-70.914,18.346c-28.759,0.001-56.598-7.089-78.102-19.479L113.731,696.95z"/>
    <path d="M794.9,159.956H5.1c-2.8,0-5.1,2.311-5.1,5.17V794.83c0,2.859,2.3,5.17,5.1,5.17h789.8c2.8,0,5.1-2.311,5.1-5.17V165.126 C800,162.267,797.7,159.956,794.9,159.956z M36.4,760.065V200h248.2c-7.199,13.421-7,31.133,8.601,50.605 c-61-17.272-107.5,73.708-56,116.392c-72.699,121.502,139.968,144.169,132.1,54.896c37.2,32.233,101.8,3.19,105.8-38.394 c17.103,16.722,50.303,15.622,64.603,0c-0.103,34.984,32.2,56.546,73.397,41.584c4.1,62.047,118.6,76.237,150.499,46.754v288.229 L36.4,760.065L36.4,760.065z"/>
  </g>
</svg>
