<svg xmlns="http://www.w3.org/2000/svg" id="icn--post" viewBox="0 0 1000 1000">
  <title>post</title>
  <g shape-rendering="crispEdges">
    <path id="volcano" d="M882.4 915.9h-771c-9.9 0-18.9-4.6-24.5-12.6-6.5-9.2-7.6-21.5-3.1-33.8.3-.7.6-1.5.9-2.2l169-344.6c3.3-6.8 9.8-11.4 17.3-12.4s15 1.9 19.9 7.6c20.3 23.5 51.5 37 85.7 37 33.9 0 64.1-13.3 82.7-36.4 4.9-6 12.5-9.1 20.1-8.2 7.7.9 14.4 5.7 17.7 12.7L606 751.6l102.8-83.3c6.1-5.7 13.8-8.9 21.8-8.9 12.1 0 23 7.1 29.2 18.7l145.7 186.1c1.1 1.5 2.1 3.1 2.9 4.8 5.3 12 4.8 24.3-1.4 33.8-5.3 8.2-14.5 13.1-24.6 13.1zm-749.3-45h720.7L728.2 710.5 618 799.8c-5.1 4.6-11.5 7.1-18.2 7.1-11 0-20.9-6.9-25.5-17.6L469.9 570.2c-25.6 19.1-58.2 29.6-93.3 29.6-35.6 0-69.1-10.8-95.8-30.4L133.1 870.9z"/>
    <path id="smoke-and-sun" d="M993.6 0H6.4C2.9 0 0 3.7 0 8.1v983.8c0 4.4 2.9 8.1 6.4 8.1h987.2c3.5 0 6.4-3.7 6.4-8.1V8.1c0-4.4-2.9-8.1-6.4-8.1zm-37.8 955.1H45.5v-910h310.2c-17.6 19.7-24.3 63 10.8 96.6-92.5-29.4-170 121.4-70 181.8-99.2 197.7 173.1 238 165.1 85.8 46.5 50.4 127.2 5 132.2-60 21.4 26.1 62.9 24.4 80.8 0-.1 54.7 40.2 88.4 91.7 65 5.1 96.9 149.5 119.1 189.4 73v467.8h.1z"/>
  </g>
</svg>
