<svg xmlns="http://www.w3.org/2000/svg" id="icn--previous" viewBox="0 0 1000 1000">
  <title>previous</title>
  <g shape-rendering="geometricPrecision">
    <path fill="#000" d="M500,0C223.875,0,0,223.875,0,500s223.875,500,500,500s500-223.875,500-500S776.125,0,500,0z"/>
    <polygon fill="#fff" points="750,477.25 306.875,477.25 431.875,318.125 386.375,318.125 250,500 386.375,681.875 431.875,681.875
      306.875,522.625 750,522.625 	"/>
    <path id="outline" fill="#fff" d="M500,0C223.875,0,0,223.875,0,500s223.875,500,500,500s500-223.875,500-500S776.125,0,500,0z M500,954.5
      C249,954.5,45.5,751,45.5,500S249,45.5,500,45.5S954.5,249,954.5,500S751,954.5,500,954.5z"/>
  </g>
</svg>
