<svg xmlns="http://www.w3.org/2000/svg" id="icn--tags" viewBox="0 0 1000 1000">
  <title>tags</title>
  <g shape-rendering="crispEdges">
    <path id="hole" d="M619.8 204c-31.1 31.1-30.6 82.2 1.2 114 31.8 31.8 82.8 32.4 114 1.2 31.1-31.1 30.6-82.2-1.2-114-31.8-31.8-82.9-32.3-114-1.2zm86.4 86.5c-15.6 15.6-41.1 15.2-57-.6-16-16-16.2-41.5-.6-57.1 15.6-15.6 41.1-15.2 57 .6 15.9 16 16.3 41.5.6 57.1z"/>
    <path id="tags" d="M940.1 433.4L912.4 49.3c-.7-11-10.6-20.7-21.5-21.5L506.7 0 65.6 441.1c-7.8 7.8-7.7 20.5.2 28.6l45.4 45.4-45.7 45.7c-7.8 7.8-7.7 20.5.2 28.6L470.4 994c7.9 7.9 20.8 7.9 28.5.2l441.2-441.1-8.1-111.7 8.1-8zm-817.2 8.3L526.3 38.3l323 30.4c11 1 21 11 22.1 22.1l30.4 323-403.4 403.5c-7.9 7.8-20.7 7.6-28.6-.4L123.2 470.3c-7.9-7.9-8.2-20.8-.3-28.6zm779 91.9L498.4 937c-7.9 7.8-20.7 7.6-28.6-.4L123.2 590.1c-7.9-7.9-8.2-20.8-.4-28.6l17.4-17.4 330.2 330.2c7.9 7.9 20.8 7.9 28.5.2L896.5 477l5.4 56.6z"/>
  </g>
</svg>
