<svg xmlns="http://www.w3.org/2000/svg" viewBox="-83.5 -22.1 1156.1 1152.1">
  <g shape-rendering="geometricPrecision">
    <path fill="#00C0FF" d="M1072.5 1130h-1156V-21.9h1156V1130z"/>
    <path fill="red" d="M1072.5 1130L803.3 766.1c-6.2-11.6-17.1-18.7-29.2-18.7-8 0-15.7 3.1-21.8 8.9l-142.8 83.3L500.6 611c-3.3-7-10-11.8-17.7-12.7-7.7-.9-15.3 2.2-20.1 8.2-18.7 23.2-48.8 36.5-82.7 36.5-34.2 0-65.5-13.5-85.7-37-4.9-5.7-12.4-8.6-19.9-7.6-7.5 1-14 5.6-17.3 12.4 0 0-340.3 518.5-340.6 519.3"/>
    <path d="M1072.6 1130l-4.7-9.2c.7 1.8 2.3 5 4.7 9.2zM803.3 766.1c-6.2-11.6-17.1-18.7-29.2-18.7-8 0-15.7 3.1-21.8 8.9l-100.8 60.3L500.6 611c-3.3-7-10-11.8-17.7-12.7-7.7-.9-15.3 2.2-20.1 8.2-18.7 23.2-48.8 36.5-82.7 36.5-34.2 0-65.5-13.5-85.7-37-4.9-5.7-12.4-8.6-19.9-7.6-7.5 1-14 5.6-17.3 12.4l-340.6 452.5v66.8l367.8-472.5c26.7 19.6 60.2 30.4 95.8 30.4 35.1 0 67.7-10.5 93.3-29.6l146.4 196.1c4.6 10.7 14.5 17.6 25.5 17.6 6.7 0 13.1-2.5 18.2-7.1l108.2-66.3s296.7 320.7 301 331.4l-.1-56.7-269.4-307.3z"/>
    <g>
      <path d="M1072.5-22.1l-1156 .2c0 98.5 0 179.5 119.6 214.4-67.5 67.1-26.1 284.1 204 230.6-21 145.5 246 217.5 254.4 12.1 80.1 35.9 146.1-10.6 140.1-93.1 9 118.5 142.5 181.5 234.4 94.5-20.3 125.6 87.8 219.8 203.5 241.4V-22.1z"/>
    </g>
  </g>
</svg>
